<svg width="445" height="400" viewBox="0 0 445 400" fill="none" xmlns="http://www.w3.org/2000/svg">
<path d="M92.8498 185.267C99.7243 192.337 101.192 202.653 97.718 211.705C96.0668 216.008 93.4574 220.016 91.1351 223.982L83.1281 237.647C80.6767 241.839 77.6862 246.433 77.6624 251.451C77.644 255.33 79.3236 259.271 82.0714 261.996C83.9687 263.879 86.5604 265.509 89.2389 265.883C95.4285 266.747 102.024 266.312 108.271 266.311L139.819 266.308C174.019 266.305 208.282 266.759 242.473 266.305C235.115 281.298 223.898 291.578 206.833 293.722C200.083 294.571 193.029 294.181 186.237 294.173C175.465 294.158 164.675 294.289 153.906 294.144C150.938 294.105 145.44 293.232 143.055 295.283C142.298 295.935 141.98 296.819 141.951 297.799C141.926 298.725 142.127 299.625 142.807 300.293C143.762 301.233 145.352 301.524 146.642 301.598C151.288 301.866 156.144 301.51 160.817 301.51L239.423 301.517C247.88 301.522 256.376 301.713 264.827 301.478C259.658 312.7 251.869 321.469 240.136 326.089C238.18 326.873 236.177 327.509 234.127 327.995C232.077 328.482 230.002 328.814 227.902 328.991C220.619 329.633 212.989 329.18 205.664 329.177L162.729 329.195C157.516 329.215 151.941 328.679 146.775 329.144C145.413 329.267 143.774 329.565 142.777 330.568C142.185 331.163 141.947 331.896 141.95 332.725C141.953 333.739 142.185 334.895 142.96 335.611C143.667 336.262 144.654 336.547 145.592 336.626C149.299 336.942 153.221 336.68 156.952 336.679L279.746 336.674C273.25 351.324 261.14 361.53 245.108 363.879C240.003 364.627 234.737 364.392 229.59 364.385L159.27 364.348C154.998 364.314 146.139 363.142 142.81 365.772C142.245 366.218 141.764 366.879 141.711 367.619C141.631 368.701 142.259 369.898 143.002 370.647C143.671 371.322 144.657 371.67 145.59 371.752C148.205 371.98 151.023 371.71 153.662 371.708L231.788 371.748C225.948 383.15 218.75 391.866 206.384 396.553C201.949 398.234 197.329 399.142 192.605 399.475C184.115 400.074 175.389 399.671 166.87 399.666L78.0004 399.669C69.5794 399.671 60.9157 400.055 52.5283 399.27C50.8995 399.133 49.2797 398.927 47.6688 398.651C46.058 398.375 44.4619 398.03 42.8807 397.617C41.2994 397.203 39.739 396.722 38.1993 396.173C36.6595 395.626 35.1462 395.012 33.6593 394.333C19.509 387.911 8.9351 375.989 3.50877 361.505C-0.4554 350.925 -1.11678 338.074 1.81162 327.133C4.88253 315.661 12.1757 305.094 18.0875 294.915L47.5946 243.795C49.9904 239.638 52.3137 235.44 54.7716 231.318C57.047 227.503 58.9982 223.982 61.434 219.61C76.2166 193.079 85.0309 177.677 85.0309 177.677C85.0309 177.677 89.9299 182.263 92.8498 185.267Z" fill="#663399"/>
<path d="M233.213 389.434C235.898 379.945 244.099 373.516 253.675 371.999C258.227 371.277 263.003 371.533 267.599 371.561L283.437 371.663C288.292 371.69 293.766 371.983 298.124 369.494C301.492 367.571 304.065 364.146 305.052 360.403C305.733 357.819 305.85 354.759 304.834 352.253C302.488 346.46 298.814 340.966 295.688 335.556L279.912 308.236C262.81 278.62 246.071 248.721 228.583 219.337C245.245 218.212 259.757 222.787 270.147 236.494C274.256 241.915 277.446 248.219 280.835 254.106C286.208 263.441 291.716 272.72 296.976 282.119C298.425 284.709 300.418 289.906 303.387 290.947C304.33 291.276 305.255 291.11 306.118 290.644C306.933 290.203 307.611 289.579 307.85 288.656C308.186 287.36 307.644 285.836 307.063 284.683C304.972 280.525 302.236 276.498 299.899 272.451L260.602 204.372C256.378 197.046 252.295 189.593 247.866 182.391C260.169 181.257 271.658 183.618 281.525 191.469C283.183 192.771 284.735 194.188 286.181 195.72C287.627 197.252 288.952 198.883 290.156 200.612C294.353 206.6 297.775 213.434 301.435 219.779L322.919 256.952C325.543 261.457 327.867 266.553 330.852 270.795C331.639 271.912 332.716 273.183 334.084 273.545C334.895 273.76 335.649 273.599 336.366 273.183C337.242 272.673 338.127 271.894 338.359 270.865C338.57 269.927 338.323 268.93 337.923 268.078C336.343 264.71 334.155 261.444 332.288 258.213L270.888 151.873C286.823 150.174 301.717 155.558 311.767 168.268C314.967 172.316 317.396 176.993 319.964 181.455L355.092 242.372C357.198 246.089 360.613 254.346 364.555 255.915C365.224 256.181 366.037 256.266 366.704 255.943C367.681 255.471 368.404 254.329 368.681 253.31C368.931 252.394 368.739 251.366 368.344 250.516C367.234 248.138 365.591 245.833 364.27 243.548L325.241 175.869C338.036 175.226 349.183 177.101 359.425 185.467C363.099 188.468 366.195 192.014 368.845 195.939C373.609 202.992 377.623 210.751 381.879 218.131L426.316 295.092C430.527 302.385 435.192 309.696 438.706 317.352C439.402 318.831 440.033 320.337 440.599 321.87C441.166 323.403 441.666 324.957 442.098 326.533C442.53 328.109 442.894 329.701 443.189 331.309C443.484 332.917 443.71 334.534 443.865 336.161C445.378 351.627 440.341 366.745 430.51 378.686C423.33 387.409 412.531 394.408 401.591 397.342C390.122 400.418 377.324 399.386 365.552 399.356L306.528 399.362C301.729 399.366 296.933 399.452 292.134 399.385C287.692 399.321 283.667 399.392 278.663 399.469C248.295 399.932 230.549 400 230.549 400C230.549 400 232.072 393.464 233.213 389.434Z" fill="#663399"/>
<path d="M338.774 166.334C329.214 168.753 319.546 164.865 313.444 157.331C310.542 153.75 308.377 149.486 306.103 145.492L298.272 131.725C295.868 127.506 293.384 122.619 289.05 120.089C285.7 118.134 281.448 117.618 277.714 118.635C275.134 119.337 272.427 120.766 270.764 122.899C266.92 127.827 263.999 133.756 260.877 139.168L245.105 166.491C228.008 196.11 210.484 225.556 193.781 255.393C184.476 241.525 181.182 226.67 187.857 210.819C190.497 204.549 194.362 198.635 197.765 192.757C203.163 183.436 208.445 174.026 213.955 164.771C215.474 162.221 218.978 157.896 218.394 154.805C218.208 153.824 217.602 153.106 216.767 152.591C215.978 152.106 215.098 151.831 214.179 152.085C212.889 152.442 211.84 153.674 211.132 154.754C208.577 158.644 206.457 163.027 204.121 167.074L164.811 235.145C160.579 242.467 156.165 249.729 152.144 257.166C145.01 247.078 141.31 235.948 143.176 223.477C143.474 221.391 143.925 219.338 144.529 217.32C145.133 215.301 145.883 213.338 146.779 211.431C149.865 204.802 154.072 198.422 157.737 192.08L179.189 154.887C181.778 150.363 185.029 145.802 187.21 141.096C187.784 139.855 188.346 138.287 187.976 136.922C187.757 136.112 187.24 135.539 186.521 135.127C185.641 134.623 184.524 134.246 183.517 134.559C182.6 134.845 181.859 135.558 181.322 136.331C179.195 139.383 177.46 142.911 175.596 146.143L114.203 252.488C104.764 239.537 101.98 223.946 107.962 208.887C109.867 204.092 112.703 199.65 115.283 195.196L150.475 134.315C152.641 130.632 158.085 123.546 157.472 119.349C157.368 118.636 157.036 117.889 156.422 117.473C155.525 116.863 154.174 116.808 153.153 117.078C152.235 117.319 151.44 117.999 150.902 118.766C149.398 120.917 148.223 123.492 146.905 125.778L107.807 193.418C100.853 182.659 96.9039 172.068 99.0277 159.015C99.7891 154.333 101.312 149.879 103.386 145.621C107.113 137.968 111.825 130.613 116.088 123.238L160.521 46.2732C164.73 38.9797 168.729 31.2848 173.603 24.4134C174.536 23.0714 175.524 21.7717 176.568 20.5146C177.613 19.2574 178.709 18.0475 179.858 16.8849C181.007 15.7223 182.204 14.6115 183.449 13.5524C184.693 12.4928 185.981 11.4889 187.312 10.5407C199.95 1.49747 215.561 -1.69897 230.818 0.843734C241.962 2.70071 253.422 8.55337 261.434 16.5601C269.832 24.9551 275.337 36.5549 281.197 46.7642L310.714 97.8781C313.117 102.032 315.59 106.142 317.931 110.332C320.097 114.21 322.171 117.66 324.74 121.956C340.325 148.024 349.256 163.358 349.256 163.358C349.256 163.358 342.835 165.307 338.774 166.334Z" fill="#663399"/>
</svg>
